#Comment line ignore any data following # character 
#Hierarchical Translation and Rotation (.htr) file 
[Header]	
#Header keywords are followed by a single value 
FileType HTR		#Single word string
DataType HTRS		#Translation followed by rotation and scale data
FileVersion 1		#integer
NumSegments 25		#integer
NumFrames 6		#integer
DataFrameRate 30		#integer, data frame rate in this file
EulerRotationOrder ZYX
CalibrationUnits mm
RotationUnits Degrees
GlobalAxisofGravity Y
BoneLengthAxis Y
ScaleFactor 1.00
[SegmentNames&Hierarchy]
#CHILD	PARENT
BN_Tick_Root GLOBAL
BN_Torso BN_Tick_Root
BN_L_Leg_Front01 BN_Torso
BN_L_Leg_Rear01 BN_Torso
BN_MetalTop BN_Torso
BN_Neck BN_Torso
BN_R_Leg_Front01 BN_Torso
BN_R_Leg_Rear01 BN_Torso
BN_Sack BN_Torso
BN_L_Leg_Front02 BN_L_Leg_Front01
BN_L_Leg_Front03 BN_L_Leg_Front02
BN_L_Leg_Rear02 BN_L_Leg_Rear01
BN_L_Leg_Rear03 BN_L_Leg_Rear02
BN_Head BN_Neck
BN_Needle BN_Head
BN_R_Leg_Front02 BN_R_Leg_Front01
BN_R_Leg_Front03 BN_R_Leg_Front02
BN_R_Leg_Rear02 BN_R_Leg_Rear01
BN_R_Leg_Rear03 BN_R_Leg_Rear02
BN_SackDef01 BN_Sack
BN_SackDef02 BN_Sack
BN_SackDef03 BN_Sack
BN_SackDef04 BN_Sack
BN_SackDef05 BN_Sack
BN_SackDef06 BN_Sack
[BasePosition]
#SegmentName Tx, Ty, Tz, Rx, Ry, Rz, BoneLength
BN_Tick_Root 0.000000 0.000000 0.000000 -90.000000 0.000000 0.000000 10.000000 
BN_Torso 0.000000 0.000000 0.000000 0.000000 0.000000 0.000000 10.000000 
BN_L_Leg_Front01 0.000000 0.000000 0.000000 0.000000 0.000000 0.000000 10.000000 
BN_L_Leg_Rear01 0.000000 0.000000 0.000000 0.000000 0.000000 0.000000 10.000000 
BN_MetalTop 0.000000 0.000000 0.000000 0.000000 0.000000 0.000000 10.000000 
BN_Neck 0.000000 0.000000 0.000000 0.000000 0.000000 0.000000 10.000000 
BN_R_Leg_Front01 0.000000 0.000000 0.000000 0.000000 0.000000 0.000000 10.000000 
BN_R_Leg_Rear01 0.000000 0.000000 0.000000 0.000000 0.000000 0.000000 10.000000 
BN_Sack 0.000000 0.000000 0.000000 0.000000 0.000000 0.000000 10.000000 
BN_L_Leg_Front02 0.000000 0.000000 0.000000 0.000000 0.000000 0.000000 10.000000 
BN_L_Leg_Front03 0.000000 0.000000 0.000000 0.000000 0.000000 0.000000 10.000000 
BN_L_Leg_Rear02 0.000000 0.000000 0.000000 0.000000 0.000000 0.000000 10.000000 
BN_L_Leg_Rear03 0.000000 0.000000 0.000000 0.000000 0.000000 0.000000 10.000000 
BN_Head 0.000000 0.000000 0.000000 0.000000 0.000000 0.000000 10.000000 
BN_Needle 0.000000 0.000000 0.000000 0.000000 0.000000 0.000000 10.000000 
BN_R_Leg_Front02 0.000000 0.000000 0.000000 0.000000 0.000000 0.000000 10.000000 
BN_R_Leg_Front03 0.000000 0.000000 0.000000 0.000000 0.000000 0.000000 10.000000 
BN_R_Leg_Rear02 0.000000 0.000000 0.000000 0.000000 0.000000 0.000000 10.000000 
BN_R_Leg_Rear03 0.000000 0.000000 0.000000 0.000000 0.000000 0.000000 10.000000 
BN_SackDef01 0.000000 0.000000 0.000000 0.000000 0.000000 0.000000 10.000000 
BN_SackDef02 0.000000 0.000000 0.000000 0.000000 0.000000 0.000000 10.000000 
BN_SackDef03 0.000000 0.000000 0.000000 0.000000 0.000000 0.000000 10.000000 
BN_SackDef04 0.000000 0.000000 0.000000 0.000000 0.000000 0.000000 10.000000 
BN_SackDef05 0.000000 0.000000 0.000000 0.000000 0.000000 0.000000 10.000000 
BN_SackDef06 0.000000 0.000000 0.000000 0.000000 0.000000 0.000000 10.000000 
#Beginning of Data. Separated by tabs
#Fr	Tx	Ty	Tz	Rx	Ry	Rz	SF
[BN_Tick_Root]
1 0.000000 0.000000 0.000000 0.000000 0.000000 -0.000020 0.000000
2 0.000000 -133.333359 0.000000 0.000000 0.000000 -0.000020 133.333359
3 0.000000 -266.666718 0.000000 0.000000 0.000000 -0.000020 266.666718
4 0.000000 -400.000092 0.000000 0.000000 0.000000 -0.000020 400.000092
5 0.000000 -533.333435 0.000000 0.000000 0.000000 -0.000020 533.333435
6 0.000000 -666.666809 0.000000 0.000000 0.000000 -0.000020 666.666809
[BN_Torso]
1 -0.000000 43.218098 182.355881 13.247072 -0.477080 1.121329 187.407227
2 6.946093 37.221729 170.022339 13.247223 1.325546 1.121708 174.187546
3 18.116970 50.022842 167.778122 13.247384 3.128170 1.122093 176.011383
4 22.461494 62.119663 188.572952 13.247304 2.226914 1.121900 199.807739
5 21.821386 60.393353 204.722336 13.247223 1.325545 1.121708 214.557144
6 14.148397 39.458275 196.502182 13.247148 0.424176 1.121518 200.923477
[BN_L_Leg_Front01]
1 -68.477791 10.734189 -26.804373 3.777949 18.800915 146.811386 74.316254
2 -68.477791 10.734189 -26.804373 18.793455 -9.666278 162.254547 74.316254
3 -68.477791 10.734189 -26.804373 -5.590396 -12.539157 -160.274963 74.316254
4 -68.477791 10.734189 -26.804373 -12.367980 10.976141 -136.833572 74.316254
5 -68.477791 10.734189 -26.804373 -3.006781 11.971041 -161.614594 74.316254
6 -68.477791 10.734189 -26.804373 2.850369 15.587523 173.048340 74.316254
[BN_L_Leg_Rear01]
1 -72.133743 -73.994843 -18.268616 142.321533 21.681149 -126.172363 104.939293
2 -72.133743 -73.994843 -18.268616 135.276825 19.424212 -140.185883 104.939293
3 -72.133743 -73.994843 -18.268616 141.290970 15.487513 -162.824203 104.939293
4 -72.133743 -73.994843 -18.268616 114.423805 -4.841131 -173.650543 104.939293
5 -72.133743 -73.994843 -18.268616 132.819977 6.770007 -144.327530 104.939293
6 -72.133743 -73.994843 -18.268616 107.448982 17.887720 -118.479889 104.939293
[BN_MetalTop]
1 0.000008 13.737477 26.403606 87.861610 -9.826873 -84.964806 29.763546
2 0.000008 13.737477 26.403606 88.324997 -12.405931 -87.788010 29.763546
3 0.000008 13.737477 26.403606 89.034035 -14.608998 -90.657547 29.763546
4 0.000008 13.737477 26.403606 89.976524 -18.427891 -93.911842 29.763546
5 0.000008 13.737477 26.403606 90.240845 -13.138173 -96.000710 29.763546
6 0.000008 13.737477 26.403606 89.708908 -10.197724 -94.335625 29.763546
[BN_Neck]
1 0.000014 95.233284 10.002091 -89.999672 -65.297531 89.999657 95.757088
2 0.000014 95.233284 10.002091 -89.999672 -65.297531 89.999657 95.757088
3 0.000014 95.233284 10.002091 -89.999672 -65.297531 89.999657 95.757088
4 0.000014 95.233284 10.002091 -89.999672 -65.297531 89.999657 95.757088
5 0.000014 95.233284 10.002091 -89.999672 -65.297531 89.999657 95.757088
6 0.000014 95.233284 10.002091 -89.999672 -65.297531 89.999657 95.757088
[BN_R_Leg_Front01]
1 68.477768 10.734107 -26.804314 12.263733 8.139259 -43.792873 74.316193
2 68.477768 10.734107 -26.804314 -13.734143 17.129223 -24.573856 74.316193
3 68.477768 10.734107 -26.804314 -20.169048 18.991480 1.538571 74.316193
4 68.477768 10.734107 -26.804314 -3.775118 18.798368 33.189018 74.316193
5 68.477768 10.734107 -26.804314 -18.790398 -9.668386 17.745476 74.316193
6 68.477768 10.734107 -26.804314 5.594034 -12.540189 -19.725546 74.316193
[BN_R_Leg_Rear01]
1 72.133751 -73.994873 -18.268644 -112.581543 -10.310433 -5.319738 104.939331
2 72.133751 -73.994873 -18.268644 -127.289513 -1.445996 -28.808931 104.939331
3 72.133751 -73.994873 -18.268644 -107.447853 17.889826 -61.518990 104.939331
4 72.133751 -73.994873 -18.268644 -142.318573 21.679106 -53.828068 104.939331
5 72.133751 -73.994873 -18.268644 -135.279572 19.420006 -39.815670 104.939331
6 72.133751 -73.994873 -18.268644 -141.288940 15.484623 -17.176598 104.939331
[BN_Sack]
1 -0.000000 -78.024918 33.657791 87.959702 -2.924654 -82.623863 84.974907
2 -0.000000 -78.024918 33.657791 88.014397 -6.126736 -86.770119 84.974907
3 -0.000000 -78.024918 33.657791 88.534058 -9.048178 -90.967766 84.974907
4 -0.000000 -78.024918 33.657791 89.486908 -11.917207 -95.237663 84.974907
5 -0.000000 -78.024918 33.657791 89.589722 -6.720423 -98.262810 84.974907
6 -0.000000 -78.024918 33.657791 89.035507 -3.649253 -95.362312 84.974907
[BN_L_Leg_Front02]
1 142.805023 -0.000015 -0.000104 -95.211693 -2.175699 -41.483044 142.805023
2 142.805023 -0.000015 -0.000104 -150.404495 -41.479206 -16.142868 142.805023
3 142.805023 -0.000015 -0.000104 -95.162354 -25.146524 -112.649269 142.805023
4 142.805023 -0.000015 -0.000104 -61.727848 13.411634 -116.048546 142.805023
5 142.805023 -0.000015 -0.000104 -73.766724 0.560322 -104.319679 142.805023
6 142.805023 -0.000015 -0.000104 -75.623901 -8.378352 -79.905563 142.805023
[BN_L_Leg_Front03]
1 124.143021 -0.000045 0.000007 0.352953 -0.308480 43.273319 124.143021
2 124.143021 -0.000045 0.000007 0.353875 -0.424384 109.939964 124.143021
3 124.143021 -0.000045 0.000007 0.355353 -0.364364 125.724060 124.143021
4 124.143021 -0.000045 0.000007 0.351163 -0.324651 133.514084 124.143021
5 124.143021 -0.000045 0.000007 0.353121 -0.410045 114.645111 124.143021
6 124.143021 -0.000045 0.000007 0.353942 -0.444334 84.216873 124.143021
[BN_L_Leg_Rear02]
1 139.939041 0.000075 -0.000022 -1.335826 -13.513970 86.337120 139.939041
2 139.939041 0.000075 -0.000022 -34.449482 -31.266922 114.628677 139.939041
3 139.939041 0.000075 -0.000022 -51.907719 -2.321366 72.132095 139.939041
4 139.939041 0.000075 -0.000022 -28.741556 30.913490 23.765882 139.939041
5 139.939041 0.000075 -0.000022 -31.489960 30.021046 46.503098 139.939041
6 139.939041 0.000075 -0.000022 29.339949 -26.333797 38.612640 139.939041
[BN_L_Leg_Rear03]
1 142.839615 0.000179 -0.000060 0.000300 -0.002328 -104.708832 142.839615
2 142.839615 0.000179 -0.000060 0.000649 -0.002256 -122.120834 142.839615
3 142.839615 0.000179 -0.000060 0.000446 -0.002304 -111.903534 142.839615
4 142.839615 0.000179 -0.000060 0.000498 -0.002294 -114.492432 142.839615
5 142.839615 0.000179 -0.000060 0.000170 -0.002341 -98.309074 142.839615
6 142.839615 0.000179 -0.000060 0.000788 0.002211 -50.768475 142.839615
[BN_Head]
1 57.062447 -0.000030 0.000000 -0.237838 1.017402 37.502544 57.062447
2 57.062447 -0.000030 0.000000 -1.448076 -0.316537 37.486378 57.062447
3 57.062447 -0.000030 0.000000 -2.658421 -1.650519 37.498383 57.062447
4 57.062447 -0.000030 0.000000 -2.053191 -0.983601 37.488857 57.062447
5 57.062447 -0.000030 0.000000 -1.448076 -0.316536 37.486378 57.062447
6 57.062447 -0.000030 0.000000 -0.842988 0.350517 37.490940 57.062447
[BN_Needle]
1 33.915161 69.677544 -0.000060 0.000003 0.000030 87.896805 77.493217
2 33.915161 69.677544 -0.000060 0.000003 0.000030 87.896805 77.493217
3 33.915161 69.677544 -0.000060 0.000003 0.000030 87.896805 77.493217
4 33.915161 69.677544 -0.000060 0.000003 0.000030 87.896805 77.493217
5 33.915161 69.677544 -0.000060 0.000003 0.000030 87.896805 77.493217
6 33.915161 69.677544 -0.000060 0.000003 0.000030 87.896805 77.493217
[BN_R_Leg_Front02]
1 142.804947 -0.000060 0.000060 75.024223 5.555626 127.004417 142.804947
2 142.804947 -0.000060 0.000060 56.291588 -38.842239 131.414139 142.804947
3 142.804947 -0.000060 0.000060 60.346848 -43.283974 105.089005 142.804947
4 142.804947 -0.000060 0.000060 90.240334 -12.403893 43.468510 142.804947
5 142.804947 -0.000060 0.000060 145.617767 -44.882320 22.405296 142.804947
6 142.804947 -0.000060 0.000060 98.408844 -19.916073 123.704742 142.804947
[BN_R_Leg_Front03]
1 124.143005 -0.000060 -0.000156 -0.353763 -0.296088 -138.478943 124.143005
2 124.143005 -0.000060 -0.000156 -0.354951 -0.356528 -127.714211 124.143005
3 124.143005 -0.000060 -0.000156 -0.352791 -0.435587 -102.662231 124.143005
4 124.143005 -0.000060 -0.000156 -0.353543 -0.402979 -63.507030 124.143005
5 124.143005 -0.000060 -0.000156 -0.352323 -0.383283 -121.921104 124.143005
6 124.143005 -0.000060 -0.000156 -0.355667 -0.390307 -119.828606 124.143005
[BN_R_Leg_Rear02]
1 139.939011 -0.000149 0.000015 25.945223 31.124355 -22.090233 139.939011
2 139.939011 -0.000149 0.000015 13.022143 37.283207 -57.791851 139.939011
3 139.939011 -0.000149 0.000015 -19.618723 -14.601804 -54.831944 139.939011
4 139.939011 -0.000149 0.000015 -4.164823 -4.218835 -80.326942 139.939011
5 139.939011 -0.000149 0.000015 28.567816 -38.324348 -102.413063 139.939011
6 139.939011 -0.000149 0.000015 53.851444 -8.072053 -75.832939 139.939011
[BN_R_Leg_Rear03]
1 142.839417 0.000075 0.000119 0.002253 -0.000658 122.540466 142.839417
2 142.839417 0.000075 0.000119 0.002280 -0.000557 117.440063 142.839417
3 142.839417 0.000075 0.000119 0.002285 0.000538 63.482311 142.839417
4 142.839417 0.000075 0.000119 0.002321 -0.000352 107.225685 142.839417
5 142.839417 0.000075 0.000119 0.002226 -0.000744 126.939560 142.839417
6 142.839417 0.000075 0.000119 0.002289 -0.000520 115.619904 142.839417
[BN_SackDef01]
1 249.782272 -3.760844 42.949425 -128.408218 -44.374973 -11.740845 253.475800
2 249.782272 -3.760844 42.949425 -128.408218 -44.374973 -11.740845 253.475800
3 249.782272 -3.760844 42.949425 -128.408218 -44.374973 -11.740845 253.475800
4 249.782272 -3.760844 42.949425 -128.408218 -44.374973 -11.740845 253.475800
5 249.782272 -3.760844 42.949425 -128.408218 -44.374973 -11.740845 253.475800
6 249.782272 -3.760844 42.949425 -128.408218 -44.374973 -11.740845 253.475800
[BN_SackDef02]
1 138.789795 -62.131748 45.674385 32.077126 -27.375721 -88.781525 158.773758
2 138.789795 -62.131748 45.674385 32.077126 -27.375721 -88.781525 158.773758
3 138.789795 -62.131748 45.674385 32.077126 -27.375721 -88.781525 158.773758
4 138.789795 -62.131748 45.674385 32.077126 -27.375721 -88.781525 158.773758
5 138.789795 -62.131748 45.674385 32.077126 -27.375721 -88.781525 158.773758
6 138.789795 -62.131748 45.674385 32.077126 -27.375721 -88.781525 158.773758
[BN_SackDef03]
1 249.782272 -3.760785 -42.949661 18.144459 44.375008 -11.740894 253.475845
2 249.782272 -3.760785 -42.949661 18.144459 44.375008 -11.740894 253.475845
3 249.782272 -3.760785 -42.949661 18.144459 44.375008 -11.740894 253.475845
4 249.782272 -3.760785 -42.949661 18.144459 44.375008 -11.740894 253.475845
5 249.782272 -3.760785 -42.949661 18.144459 44.375008 -11.740894 253.475845
6 249.782272 -3.760785 -42.949661 18.144459 44.375008 -11.740894 253.475845
[BN_SackDef04]
1 138.789780 -62.131645 -45.674473 146.059982 27.375723 -88.781555 158.773743
2 138.789780 -62.131645 -45.674473 146.059982 27.375723 -88.781555 158.773743
3 138.789780 -62.131645 -45.674473 146.059982 27.375723 -88.781555 158.773743
4 138.789780 -62.131645 -45.674473 146.059982 27.375723 -88.781555 158.773743
5 138.789780 -62.131645 -45.674473 146.059982 27.375723 -88.781555 158.773743
6 138.789780 -62.131645 -45.674473 146.059982 27.375723 -88.781555 158.773743
[BN_SackDef05]
1 118.790161 46.167137 -63.831196 0.155741 51.314110 90.605110 142.537460
2 118.790161 46.167137 -63.831196 0.155741 51.314110 90.605110 142.537460
3 118.790161 46.167137 -63.831196 0.155741 51.314110 90.605110 142.537460
4 118.790161 46.167137 -63.831196 0.155741 51.314110 90.605110 142.537460
5 118.790161 46.167137 -63.831196 0.155741 51.314110 90.605110 142.537460
6 118.790161 46.167137 -63.831196 0.155741 51.314110 90.605110 142.537460
[BN_SackDef06]
1 118.790207 46.167194 63.831219 152.058487 -51.314072 90.605019 142.537537
2 118.790207 46.167194 63.831219 152.058487 -51.314072 90.605019 142.537537
3 118.790207 46.167194 63.831219 152.058487 -51.314072 90.605019 142.537537
4 118.790207 46.167194 63.831219 152.058487 -51.314072 90.605019 142.537537
5 118.790207 46.167194 63.831219 152.058487 -51.314072 90.605019 142.537537
6 118.790207 46.167194 63.831219 152.058487 -51.314072 90.605019 142.537537
